<mxfile host="app.diagrams.net" modified="2024-05-29T14:28:41.478Z" agent="Mozilla/5.0 (Windows NT 10.0; Win64; x64) AppleWebKit/537.36 (KHTML, like Gecko) Chrome/125.0.0.0 Safari/537.36" etag="7_C4annUjrvpYQifd12P" version="24.4.9" type="github" pages="2">
  <diagram name="Quản Lý Dự Án" id="0vpR-agItRgh76J0_syr">
    <mxGraphModel dx="1885" dy="515" grid="1" gridSize="10" guides="1" tooltips="1" connect="1" arrows="1" fold="1" page="1" pageScale="1" pageWidth="850" pageHeight="1100" math="0" shadow="0">
      <root>
        <mxCell id="0" />
        <mxCell id="1" parent="0" />
        <mxCell id="ledsg_UY42GFiw3czYGd-26" value="" style="rounded=0;whiteSpace=wrap;html=1;" vertex="1" parent="1">
          <mxGeometry x="140" y="70" width="610" height="400" as="geometry" />
        </mxCell>
        <mxCell id="ledsg_UY42GFiw3czYGd-28" value="" style="rounded=0;whiteSpace=wrap;html=1;" vertex="1" parent="1">
          <mxGeometry x="190" y="150" width="250" height="290" as="geometry" />
        </mxCell>
        <mxCell id="ledsg_UY42GFiw3czYGd-48" style="edgeStyle=orthogonalEdgeStyle;rounded=0;orthogonalLoop=1;jettySize=auto;html=1;entryX=0.5;entryY=1;entryDx=0;entryDy=0;" edge="1" parent="1" source="ledsg_UY42GFiw3czYGd-1" target="ledsg_UY42GFiw3czYGd-43">
          <mxGeometry relative="1" as="geometry" />
        </mxCell>
        <mxCell id="ledsg_UY42GFiw3czYGd-49" style="edgeStyle=orthogonalEdgeStyle;rounded=0;orthogonalLoop=1;jettySize=auto;html=1;entryX=0.5;entryY=0;entryDx=0;entryDy=0;" edge="1" parent="1" source="ledsg_UY42GFiw3czYGd-1" target="ledsg_UY42GFiw3czYGd-41">
          <mxGeometry relative="1" as="geometry" />
        </mxCell>
        <mxCell id="ledsg_UY42GFiw3czYGd-50" style="edgeStyle=orthogonalEdgeStyle;rounded=0;orthogonalLoop=1;jettySize=auto;html=1;entryX=0.5;entryY=0;entryDx=0;entryDy=0;" edge="1" parent="1" source="ledsg_UY42GFiw3czYGd-1" target="ledsg_UY42GFiw3czYGd-44">
          <mxGeometry relative="1" as="geometry">
            <Array as="points">
              <mxPoint x="250" y="350" />
            </Array>
          </mxGeometry>
        </mxCell>
        <mxCell id="XIs8rbl4jyKahpqpyYx9-3" style="edgeStyle=orthogonalEdgeStyle;rounded=0;orthogonalLoop=1;jettySize=auto;html=1;entryX=0.5;entryY=1;entryDx=0;entryDy=0;" edge="1" parent="1" source="ledsg_UY42GFiw3czYGd-1" target="ledsg_UY42GFiw3czYGd-37">
          <mxGeometry relative="1" as="geometry">
            <Array as="points">
              <mxPoint x="250" y="350" />
            </Array>
          </mxGeometry>
        </mxCell>
        <mxCell id="ledsg_UY42GFiw3czYGd-1" value="Người quản&amp;nbsp;&lt;div&gt;lý dự án&lt;/div&gt;" style="ellipse;whiteSpace=wrap;html=1;" vertex="1" parent="1">
          <mxGeometry x="-40" y="310" width="120" height="80" as="geometry" />
        </mxCell>
        <mxCell id="ledsg_UY42GFiw3czYGd-18" style="edgeStyle=orthogonalEdgeStyle;rounded=0;orthogonalLoop=1;jettySize=auto;html=1;entryX=0.5;entryY=0;entryDx=0;entryDy=0;" edge="1" parent="1" source="ledsg_UY42GFiw3czYGd-2" target="ledsg_UY42GFiw3czYGd-37">
          <mxGeometry relative="1" as="geometry">
            <mxPoint x="282.5" y="180" as="targetPoint" />
            <Array as="points">
              <mxPoint x="250" y="210" />
            </Array>
          </mxGeometry>
        </mxCell>
        <mxCell id="XIs8rbl4jyKahpqpyYx9-5" style="edgeStyle=orthogonalEdgeStyle;rounded=0;orthogonalLoop=1;jettySize=auto;html=1;entryX=0.5;entryY=0;entryDx=0;entryDy=0;exitX=1;exitY=0.5;exitDx=0;exitDy=0;" edge="1" parent="1" source="ledsg_UY42GFiw3czYGd-2" target="XIs8rbl4jyKahpqpyYx9-1">
          <mxGeometry relative="1" as="geometry">
            <Array as="points">
              <mxPoint x="19" y="220" />
              <mxPoint x="19" y="210" />
              <mxPoint x="375" y="210" />
            </Array>
          </mxGeometry>
        </mxCell>
        <mxCell id="ledsg_UY42GFiw3czYGd-2" value="Nhân viên&amp;nbsp;&lt;div&gt;phòng ban&lt;/div&gt;" style="ellipse;whiteSpace=wrap;html=1;" vertex="1" parent="1">
          <mxGeometry x="-50" y="180" width="120" height="80" as="geometry" />
        </mxCell>
        <mxCell id="ledsg_UY42GFiw3czYGd-24" value="&lt;b style=&quot;font-size: 19px;&quot;&gt;Quản Lý Milestones&lt;/b&gt;" style="text;html=1;align=center;verticalAlign=middle;resizable=0;points=[];autosize=1;strokeColor=none;fillColor=none;fontSize=19;" vertex="1" parent="1">
          <mxGeometry x="220" y="160" width="200" height="40" as="geometry" />
        </mxCell>
        <mxCell id="ledsg_UY42GFiw3czYGd-31" value="Hệ thống Quản Lý Dự Án" style="text;html=1;align=center;verticalAlign=middle;resizable=0;points=[];autosize=1;strokeColor=none;fillColor=none;fontStyle=1;fontSize=20;" vertex="1" parent="1">
          <mxGeometry x="330" y="90" width="250" height="40" as="geometry" />
        </mxCell>
        <mxCell id="ledsg_UY42GFiw3czYGd-32" value="" style="rounded=0;whiteSpace=wrap;html=1;" vertex="1" parent="1">
          <mxGeometry x="480" y="150" width="230" height="290" as="geometry" />
        </mxCell>
        <mxCell id="ledsg_UY42GFiw3czYGd-33" value="Component khác..." style="text;html=1;align=center;verticalAlign=middle;resizable=0;points=[];autosize=1;strokeColor=none;fillColor=none;fontStyle=1;fontSize=18;" vertex="1" parent="1">
          <mxGeometry x="510" y="160" width="170" height="40" as="geometry" />
        </mxCell>
        <mxCell id="ledsg_UY42GFiw3czYGd-37" value="Xem chi tiết Milestones" style="rounded=0;whiteSpace=wrap;html=1;" vertex="1" parent="1">
          <mxGeometry x="210" y="230" width="80" height="40" as="geometry" />
        </mxCell>
        <mxCell id="ledsg_UY42GFiw3czYGd-41" value="Close Milestone" style="rounded=0;whiteSpace=wrap;html=1;" vertex="1" parent="1">
          <mxGeometry x="340" y="370" width="70" height="40" as="geometry" />
        </mxCell>
        <mxCell id="ledsg_UY42GFiw3czYGd-43" value="Edit Milestones" style="rounded=0;whiteSpace=wrap;html=1;" vertex="1" parent="1">
          <mxGeometry x="270" y="290" width="70" height="40" as="geometry" />
        </mxCell>
        <mxCell id="ledsg_UY42GFiw3czYGd-44" value="Khởi tạo Milestones" style="rounded=0;whiteSpace=wrap;html=1;" vertex="1" parent="1">
          <mxGeometry x="210" y="370" width="80" height="40" as="geometry" />
        </mxCell>
        <mxCell id="XIs8rbl4jyKahpqpyYx9-1" value="Cập nhật&lt;div&gt;tiến độ&lt;br&gt;Milestones&lt;/div&gt;" style="rounded=0;whiteSpace=wrap;html=1;" vertex="1" parent="1">
          <mxGeometry x="340" y="230" width="70" height="50" as="geometry" />
        </mxCell>
      </root>
    </mxGraphModel>
  </diagram>
  <diagram id="tgbsb8KBKj2wi9uBJqsO" name="Use Case">
    <mxGraphModel dx="1050" dy="522" grid="1" gridSize="10" guides="1" tooltips="1" connect="1" arrows="1" fold="1" page="1" pageScale="1" pageWidth="850" pageHeight="1100" math="0" shadow="0">
      <root>
        <mxCell id="0" />
        <mxCell id="1" parent="0" />
      </root>
    </mxGraphModel>
  </diagram>
</mxfile>
